<?xml version="1.0" encoding="UTF-8" standalone="no"?>
<svg
   width="128"
   height="128"
   viewBox="0 0 128 128"
   fill="none"
   version="1.1"
   id="svg1"
   sodipodi:docname="github-white_.svg"
   inkscape:version="1.4.2 (ebf0e940d0, 2025-05-08)"
   xmlns:inkscape="http://www.inkscape.org/namespaces/inkscape"
   xmlns:sodipodi="http://sodipodi.sourceforge.net/DTD/sodipodi-0.dtd"
   xmlns="http://www.w3.org/2000/svg"
   xmlns:svg="http://www.w3.org/2000/svg">
  <defs
     id="defs1" />
  <sodipodi:namedview
     id="namedview1"
     pagecolor="#ffffff"
     bordercolor="#000000"
     borderopacity="0.25"
     inkscape:showpageshadow="2"
     inkscape:pageopacity="0.0"
     inkscape:pagecheckerboard="0"
     inkscape:deskcolor="#d1d1d1"
     inkscape:zoom="6.296875"
     inkscape:cx="81.548387"
     inkscape:cy="64"
     inkscape:window-width="1854"
     inkscape:window-height="1011"
     inkscape:window-x="0"
     inkscape:window-y="0"
     inkscape:window-maximized="1"
     inkscape:current-layer="svg1" />
  <path
     d="M 54.318806,93.629748 C 37.808571,91.563602 26.176426,79.295792 26.176426,63.412365 c 0,-6.456707 2.251395,-13.429949 6.003722,-18.078777 -1.626075,-4.261495 -1.37592,-13.300883 0.50031,-17.045703 5.003101,-0.64574 11.757289,2.066146 15.75977,5.810966 4.752946,-1.549609 9.756049,-2.324415 15.884782,-2.324415 6.128866,0 11.131967,0.774806 15.634759,2.19535 3.877336,-3.615755 10.756671,-6.327641 15.759772,-5.681901 1.751087,3.486551 2.001242,12.52594 0.375167,16.9165 4.002482,4.907097 6.128862,11.493006 6.128862,18.20798 0,15.883427 -11.632274,27.892969 -28.392667,30.08818 4.252636,2.84095 7.129486,9.039385 7.129486,16.141835 v 13.43022 c 0,3.87334 3.126873,6.06896 6.879201,4.51935 22.63911,-8.91059 40.40012,-32.283528 40.40012,-61.20957 0,-36.544886 -28.767842,-66.37493656 -64.164855,-66.37493656 -35.396879,0 -63.91455803,29.82991256 -63.91455803,66.37493656 0,28.667775 17.63586703,52.42845 41.40060003,61.33905 3.37716,1.29066 6.629176,-1.03307 6.629176,-4.51935 v -10.33142 c -1.751085,0.7748 -4.002481,1.29135 -6.003721,1.29135 -8.255119,0 -13.133209,-4.64884 -16.63538,-13.30075 -1.375787,-3.486692 -2.876717,-5.552838 -5.753568,-5.940171 -1.50093,-0.129203 -2.00124,-0.774805 -2.00124,-1.549609 0,-1.54961 2.50155,-2.711886 5.003101,-2.711886 3.627316,0 6.754188,2.324415 10.006204,7.102445 2.50155,3.744821 5.128246,5.423631 8.255118,5.423631 3.127005,0 5.128246,-1.16227 8.004963,-4.132289 2.126384,-2.195349 3.752326,-4.132292 5.253256,-5.423633 z"
     fill="#ffffff"
     id="path1"
     style="stroke-width:1.35562" />
</svg>
